<svg xmlns="http://www.w3.org/2000/svg" xmlns:xlink="http://www.w3.org/1999/xlink" width="764.148" height="402.368" viewBox="0 0 202.181 106.46"><defs><path d="M2.929-6.376c0-.24 0-.26-.23-.26-.617.638-1.494.638-1.812.638v.31c.199 0 .787 0 1.305-.26v5.161c0 .359-.03.478-.927.478H.946V0c.35-.03 1.216-.03 1.614-.03.399 0 1.266 0 1.614.03v-.309h-.318c-.897 0-.927-.11-.927-.478z" id="h"/><path id="P" d="M4.533-4.981c0-.658-.18-2.043-1.196-2.043-1.384 0-2.919 2.81-2.919 5.091C.418-.996.708.11 1.614.11c1.405 0 2.919-2.86 2.919-5.091zM1.474-3.616c.17-.638.37-1.435.768-2.142.269-.489.637-1.046 1.086-1.046.488 0 .547.637.547 1.205 0 .488-.08.996-.318 1.983zm1.993.318c-.11.459-.319 1.305-.697 2.023C2.42-.598 2.042-.11 1.614-.11c-.329 0-.538-.289-.538-1.215 0-.418.06-.996.319-1.973z"/></defs><path d="M0 0h202.181v106.46H0z" fill="#fff"/><path d="M100.956 77.43a41.01 41.01 0 01-39.349 27.943 41.01 41.01 0 01-38.69-28.846 41.01 41.01 0 0115.547-45.688 41.01 41.01 0 0148.256.742" fill="none" stroke="#000" stroke-width=".2" stroke-linecap="round" stroke-linejoin="round"/><path d="M62.082 105.376v-82.02m0 41.01l-36.67-18.363m36.67 18.363H7.087m54.995 0V6.724m0 57.642l-21.55-34.892m21.55 75.902l-21.55-75.902" fill="none" stroke="#000" stroke-width=".265"/><path d="M25.412 46.003h36.67" fill="none" stroke="#000" stroke-width=".265" stroke-dasharray=".79374995,.79374995"/><g transform="matrix(.6 0 0 .6 17.322 8.233)"><defs><path id="a" d="M2.929-6.376c0-.24 0-.26-.23-.26-.617.638-1.494.638-1.812.638v.31c.199 0 .787 0 1.305-.26v5.161c0 .359-.03.478-.927.478H.946V0c.35-.03 1.216-.03 1.614-.03.399 0 1.266 0 1.614.03v-.309h-.318c-.897 0-.927-.11-.927-.478z"/><path id="c" d="M4.473-2.002c0-1.186-.817-2.182-1.893-2.182-.478 0-.906.16-1.265.508V-5.62c.2.06.528.13.847.13 1.225 0 1.923-.907 1.923-1.037 0-.06-.03-.11-.1-.11-.01 0-.03 0-.08.03a3.295 3.295 0 01-2.68.01c-.08-.03-.1-.03-.12-.03-.099 0-.099.08-.099.24v2.949c0 .18 0 .259.14.259.07 0 .09-.03.13-.09a1.49 1.49 0 011.284-.697c.518 0 .768.458.847.637.16.37.18.758.18 1.256 0 .348 0 .946-.24 1.365-.239.388-.607.647-1.066.647C1.554-.06.986-.588.817-1.176c.03.01.06.02.17.02a.478.478 0 00.497-.488.478.478 0 00-.498-.488c-.14 0-.488.07-.488.528 0 .857.688 1.823 1.803 1.823 1.156 0 2.172-.956 2.172-2.221z"/><path id="b" d="M3.875 8.518L2.122 4.643c-.07-.16-.12-.16-.15-.16-.01 0-.06 0-.169.08l-.946.717c-.13.1-.13.13-.13.16 0 .05.03.11.1.11.06 0 .229-.14.339-.22.06-.05.209-.16.318-.24l1.963 4.315c.07.16.12.16.21.16.149 0 .179-.06.248-.2L8.428 0c.07-.14.07-.18.07-.2a.2.2 0 00-.2-.199c-.079 0-.149.05-.228.21z"/></defs><use y="59.222" xlink:href="#a" x="82.059" width="100%" height="100%"/><path d="M77.908 63.272h13.284v.398H77.908z"/><use y="65.663" xlink:href="#b" x="77.908" width="100%" height="100%"/><path d="M86.21 65.265h4.981v.398H86.21z"/><use y="73.904" xlink:href="#c" x="86.21" width="100%" height="100%"/></g><g transform="matrix(.8 0 0 .8 1.969 -28.294)"><defs><path d="M2.929-6.376c0-.24 0-.26-.23-.26-.617.638-1.494.638-1.812.638v.31c.199 0 .787 0 1.305-.26v5.161c0 .359-.03.478-.927.478H.946V0c.35-.03 1.216-.03 1.614-.03.399 0 1.266 0 1.614.03v-.309h-.318c-.897 0-.927-.11-.927-.478z" id="d"/></defs><use height="100%" width="100%" x="76.712" xlink:href="#d" y="62.765"/></g><path d="M52.822 59.736c.27-2.476 1.683-3.666 3.969-3.875" fill="none" stroke="#000" stroke-width=".265"/><path d="M56.79 55.862c1.502-1.966 3.296-2.236 5.313-1.212" fill="none" stroke="#000" stroke-width=".262"/><path d="M58.52 53.42l.548 1.928m.596-2.247l.548 1.928m-7.223 1.527l1.48 1.353m-.678-1.988l1.479 1.353" fill="none" stroke="#000" stroke-width=".265"/><g transform="matrix(.6 0 0 .6 -22.544 34.162)"><defs><path id="e" d="M1.265-.767l1.056-1.026c1.554-1.375 2.152-1.913 2.152-2.91 0-1.135-.896-1.932-2.112-1.932A1.84 1.84 0 00.498-4.832c0 .558.498.558.528.558.17 0 .518-.12.518-.528a.504.504 0 00-.528-.518c-.08 0-.1 0-.13.01.23-.648.768-1.016 1.346-1.016.906 0 1.335.807 1.335 1.624 0 .797-.499 1.584-1.046 2.201L.608-.369c-.11.11-.11.13-.11.369h3.696l.28-1.733h-.25c-.05.298-.12.737-.219.886-.07.08-.727.08-.946.08z"/><path id="g" d="M4.473-2.002c0-1.186-.817-2.182-1.893-2.182-.478 0-.906.16-1.265.508V-5.62c.2.06.528.13.847.13 1.225 0 1.923-.907 1.923-1.037 0-.06-.03-.11-.1-.11-.01 0-.03 0-.08.03a3.295 3.295 0 01-2.68.01c-.08-.03-.1-.03-.12-.03-.099 0-.099.08-.099.24v2.949c0 .18 0 .259.14.259.07 0 .09-.03.13-.09a1.49 1.49 0 011.284-.697c.518 0 .768.458.847.637.16.37.18.758.18 1.256 0 .348 0 .946-.24 1.365-.239.388-.607.647-1.066.647C1.554-.06.986-.588.817-1.176c.03.01.06.02.17.02a.478.478 0 00.497-.488.478.478 0 00-.498-.488c-.14 0-.488.07-.488.528 0 .857.688 1.823 1.803 1.823 1.156 0 2.172-.956 2.172-2.221z"/><path id="f" d="M3.875 8.518L2.122 4.643c-.07-.16-.12-.16-.15-.16-.01 0-.06 0-.169.08l-.946.717c-.13.1-.13.13-.13.16 0 .05.03.11.1.11.06 0 .229-.14.339-.22.06-.05.209-.16.318-.24l1.963 4.315c.07.16.12.16.21.16.149 0 .179-.06.248-.2L8.428 0c.07-.14.07-.18.07-.2a.2.2 0 00-.2-.199c-.079 0-.149.05-.228.21z"/></defs><use y="59.222" xlink:href="#e" x="82.059" width="100%" height="100%"/><path d="M77.908 63.272h13.284v.398H77.908z"/><use y="65.663" xlink:href="#f" x="77.908" width="100%" height="100%"/><path d="M86.21 65.265h4.981v.398H86.21z"/><use y="73.904" xlink:href="#g" x="86.21" width="100%" height="100%"/></g><use height="100%" width="100%" x="76.712" xlink:href="#h" y="62.765" transform="matrix(.8 0 0 .8 -45.981 20.449)"/><path d="M25.412 46.003v18.363" fill="none" stroke="#000" stroke-width=".265" stroke-dasharray=".79374995,.79374995"/><path d="M25.412 46.003l36.67-22.647" fill="none" stroke="#000" stroke-width=".265"/><g transform="matrix(.8 0 0 .8 -8.128 -29.224)"><defs><path d="M6.257-5.669c.488-.777.906-.807 1.275-.827.12-.01.13-.179.13-.189 0-.08-.05-.12-.13-.12-.26 0-.548.03-.817.03-.329 0-.668-.03-.986-.03-.06 0-.19 0-.19.19 0 .11.09.12.16.12.269.02.458.119.458.328 0 .15-.15.369-.15.379L2.95-.927l-.678-5.27c0-.17.23-.299.688-.299.14 0 .249 0 .249-.199 0-.09-.08-.11-.14-.11-.398 0-.826.03-1.235.03-.18 0-.368-.01-.548-.01-.18 0-.368-.02-.538-.02-.07 0-.19 0-.19.19 0 .12.09.12.25.12.558 0 .568.089.598.338L2.192-.01c.03.2.07.23.199.23.16 0 .2-.05.279-.18z" id="i"/><path d="M2.336-4.435c0-.189-.014-.196-.209-.196-.446.44-1.08.447-1.367.447v.25c.168 0 .628 0 1.011-.195v3.557c0 .23 0 .32-.697.32H.809V0c.125-.007.983-.028 1.241-.028.217 0 1.095.021 1.249.028v-.251h-.265c-.698 0-.698-.09-.698-.32z" id="j"/></defs><use height="100%" width="100%" x="76.712" xlink:href="#i" y="62.765"/><use height="100%" width="100%" x="82.524" xlink:href="#j" y="64.259"/></g><g transform="matrix(.8 0 0 .8 -44.905 -6.81)"><defs><path id="k" d="M6.257-5.669c.488-.777.906-.807 1.275-.827.12-.01.13-.179.13-.189 0-.08-.05-.12-.13-.12-.26 0-.548.03-.817.03-.329 0-.668-.03-.986-.03-.06 0-.19 0-.19.19 0 .11.09.12.16.12.269.02.458.119.458.328 0 .15-.15.369-.15.379L2.95-.927l-.678-5.27c0-.17.23-.299.688-.299.14 0 .249 0 .249-.199 0-.09-.08-.11-.14-.11-.398 0-.826.03-1.235.03-.18 0-.368-.01-.548-.01-.18 0-.368-.02-.538-.02-.07 0-.19 0-.19.19 0 .12.09.12.25.12.558 0 .568.089.598.338L2.192-.01c.03.2.07.23.199.23.16 0 .2-.05.279-.18z"/><path id="l" d="M3.522-1.27h-.237c-.021.154-.091.566-.182.635-.055.042-.592.042-.69.042H1.13c.732-.648.976-.844 1.395-1.171.516-.412.997-.844.997-1.507 0-.844-.74-1.36-1.632-1.36-.865 0-1.45.607-1.45 1.249 0 .355.3.39.369.39.167 0 .37-.118.37-.37 0-.125-.05-.369-.412-.369.216-.495.69-.649 1.018-.649.698 0 1.06.544 1.06 1.11 0 .606-.432 1.087-.655 1.338L.51-.272C.44-.209.44-.195.44 0h2.873z"/></defs><use height="100%" width="100%" y="62.765" xlink:href="#k" x="76.712"/><use height="100%" width="100%" y="64.259" xlink:href="#l" x="82.524"/></g><g transform="matrix(.8 0 0 .8 -12.248 -10.78)"><defs><path d="M9.225-6.037c.09-.359.11-.459.857-.459.23 0 .319 0 .319-.199 0-.11-.1-.11-.269-.11H8.817c-.26 0-.27 0-.389.19L4.792-.936l-.777-5.64c-.03-.228-.05-.228-.309-.228H2.341c-.19 0-.299 0-.299.189 0 .12.09.12.29.12.129 0 .308.01.428.02.16.02.219.05.219.159 0 .04-.01.07-.04.189L1.674-1.056c-.1.398-.27.717-1.076.747-.05 0-.18.01-.18.19 0 .09.06.119.14.119.319 0 .667-.03.996-.03.339 0 .698.03 1.026.03.05 0 .18 0 .18-.2 0-.109-.11-.109-.18-.109-.568-.01-.677-.21-.677-.438 0-.07.01-.12.04-.23l1.355-5.429h.01l.856 6.177c.02.12.03.229.15.229.11 0 .17-.11.219-.18l4.025-6.306h.01L7.143-.777c-.1.388-.12.468-.906.468-.17 0-.28 0-.28.19 0 .119.12.119.15.119.28 0 .957-.03 1.235-.03.409 0 .837.03 1.246.03.06 0 .19 0 .19-.2 0-.109-.09-.109-.28-.109-.368 0-.647 0-.647-.18 0-.039 0-.059.05-.238z" id="m"/></defs><use height="100%" width="100%" x="76.712" xlink:href="#m" y="62.765"/></g><g transform="matrix(.8 0 0 .8 -26.082 -22.723)"><defs><path id="n" d="M3.019-3.148h1.693c1.415 0 2.8-1.036 2.8-2.152 0-.767-.658-1.504-1.963-1.504H2.321c-.189 0-.299 0-.299.189 0 .12.09.12.29.12.129 0 .308.01.428.02.16.02.219.05.219.159 0 .04-.01.07-.04.189L1.584-.777c-.1.388-.12.468-.907.468-.169 0-.278 0-.278.19C.399 0 .519 0 .548 0c.279 0 .986-.03 1.265-.03.21 0 .429.01.638.01.219 0 .438.02.647.02.07 0 .2 0 .2-.2 0-.109-.09-.109-.28-.109-.368 0-.647 0-.647-.18 0-.059.02-.109.03-.169zm.717-2.97c.09-.348.11-.378.538-.378h.956c.827 0 1.355.27 1.355.957 0 .388-.199 1.245-.587 1.604-.499.448-1.096.528-1.535.528H3.06z"/></defs><use height="100%" width="100%" y="62.765" xlink:href="#n" x="76.712"/></g><g transform="matrix(.8 0 0 .8 3.136 16.776)"><defs><path d="M7.372-4.344c0-1.604-1.056-2.68-2.54-2.68C2.68-7.024.488-4.762.488-2.44.488-.787 1.604.22 3.038.22c2.113 0 4.334-2.182 4.334-4.563zM3.098-.04c-.986 0-1.683-.807-1.683-2.122 0-.438.14-1.893.906-3.058.688-1.037 1.664-1.555 2.451-1.555.817 0 1.714.558 1.714 2.043 0 .717-.27 2.271-1.256 3.497C4.752-.628 3.935-.04 3.098-.04z" id="o"/></defs><use height="100%" width="100%" x="76.712" xlink:href="#o" y="62.765"/></g><path d="M43.747 34.679l6.051 1.906" fill="none" stroke="#000" stroke-width=".265"/><g transform="matrix(.8 0 0 .8 -26.632 27.373)"><defs><path d="M1.694 1.694c-.04.13-.05.15-.05.199 0 .22.19.279.289.279.05 0 .269-.03.368-.26.03-.079.08-.408.35-1.822.089.01.158.02.328.02 1.654 0 3.188-1.565 3.188-3.139 0-.777-.389-1.374-1.136-1.374-1.444 0-2.042 1.932-2.64 3.875C1.315-.728.757-1.285.757-2.002c0-.28.23-1.375.827-2.063.08-.09.08-.11.08-.13 0-.04-.02-.099-.12-.099-.279 0-1.046 1.445-1.046 2.401 0 .937.658 1.664 1.724 1.913zM3.068-.468c-.08 0-.1 0-.179-.01-.12 0-.13-.01-.13-.04 0-.02.17-.927.2-1.076.309-1.275 1.086-2.232 1.973-2.232.687 0 .956.538.956 1.017 0 1.125-1.285 2.34-2.82 2.34z" id="p"/><path d="M3.019-3.148h1.693c1.415 0 2.8-1.036 2.8-2.152 0-.767-.658-1.504-1.963-1.504H2.321c-.189 0-.299 0-.299.189 0 .12.09.12.29.12.129 0 .308.01.428.02.16.02.219.05.219.159 0 .04-.01.07-.04.189L1.584-.777c-.1.388-.12.468-.907.468-.169 0-.278 0-.278.19C.399 0 .519 0 .548 0c.279 0 .986-.03 1.265-.03.21 0 .429.01.638.01.219 0 .438.02.647.02.07 0 .2 0 .2-.2 0-.109-.09-.109-.28-.109-.368 0-.647 0-.647-.18 0-.059.02-.109.03-.169zm.717-2.97c.09-.348.11-.378.538-.378h.956c.827 0 1.355.27 1.355.957 0 .388-.199 1.245-.587 1.604-.499.448-1.096.528-1.535.528H3.06z" id="r"/><path d="M3.298 2.391c0-.03 0-.05-.17-.22C1.883.918 1.564-.965 1.564-2.49c0-1.733.379-3.467 1.604-4.712.13-.12.13-.14.13-.17 0-.07-.04-.099-.1-.099-.1 0-.996.677-1.584 1.943-.508 1.095-.628 2.2-.628 3.037 0 .777.11 1.983.658 3.109.598 1.225 1.454 1.873 1.554 1.873.06 0 .1-.03.1-.1z" id="q"/><path d="M2.88-2.49c0-.778-.11-1.983-.658-3.109C1.624-6.824.767-7.472.667-7.472c-.06 0-.1.04-.1.1 0 .03 0 .05.19.229.976.986 1.544 2.57 1.544 4.652 0 1.704-.368 3.457-1.604 4.713-.13.12-.13.14-.13.169 0 .06.04.1.1.1.1 0 .997-.678 1.585-1.943.508-1.096.627-2.202.627-3.039z" id="s"/></defs><use height="100%" width="100%" x="76.712" xlink:href="#p" y="62.765"/><use height="100%" width="100%" x="83.23" xlink:href="#q" y="62.765"/><use height="100%" width="100%" x="87.104" xlink:href="#r" y="62.765"/><use height="100%" width="100%" x="94.884" xlink:href="#s" y="62.765"/></g><path d="M50.439 64.366l-8.957 6.803" fill="none" stroke="#000" stroke-width=".265"/><g transform="matrix(.6 0 0 .6 6.985 -67.287)"><defs><path id="t" d="M1.863-2.301c.289 0 1.026-.02 1.524-.23.698-.298.747-.886.747-1.026 0-.438-.378-.846-1.066-.846-1.105 0-2.61.966-2.61 2.71C.458-.678 1.046.11 2.022.11c1.425 0 2.262-1.056 2.262-1.176 0-.06-.06-.13-.12-.13-.05 0-.07.02-.13.1a2.598 2.598 0 01-1.992.986c-.777 0-.866-.836-.866-1.155 0-.12.01-.429.159-1.036zm-.468-.22c.388-1.514 1.414-1.663 1.673-1.663.469 0 .738.289.738.627 0 1.036-1.594 1.036-2.003 1.036z"/><path id="u" d="M5.189-1.576c.111 0 .278 0 .278-.167 0-.175-.16-.175-.278-.175H1.032c-.111 0-.279 0-.279.168 0 .174.16.174.28.174z"/><path id="v" d="M3.522-1.27h-.237c-.021.154-.091.566-.182.635-.055.042-.592.042-.69.042H1.13c.732-.648.976-.844 1.395-1.171.516-.412.997-.844.997-1.507 0-.844-.74-1.36-1.632-1.36-.865 0-1.45.607-1.45 1.249 0 .355.3.39.369.39.167 0 .37-.118.37-.37 0-.125-.05-.369-.412-.369.216-.495.69-.649 1.018-.649.698 0 1.06.544 1.06 1.11 0 .606-.432 1.087-.655 1.338L.51-.272C.44-.209.44-.195.44 0h2.873z"/><path id="B" d="M3.69-1.144v-.25h-.775v-3.111c0-.147 0-.195-.153-.195-.084 0-.112 0-.182.097L.272-1.395v.251h2.05v.572c0 .237 0 .32-.565.32H1.57V0a32.03 32.03 0 011.046-.028c.258 0 .705.014 1.053.028v-.251H3.48c-.565 0-.565-.084-.565-.32v-.573zM2.37-3.947v2.552H.53z"/><path id="y" d="M1.08-3.891c.357.09.566.09.677.09.921 0 1.465-.627 1.465-.732 0-.077-.049-.098-.084-.098-.014 0-.028 0-.056.021-.167.063-.537.203-1.053.203-.195 0-.564-.014-1.018-.189-.07-.035-.083-.035-.09-.035-.091 0-.091.077-.091.189v2.057c0 .118 0 .202.111.202.063 0 .07-.014.14-.097.3-.384.725-.44.97-.44.418 0 .606.335.64.39.126.23.168.496.168.9 0 .21 0 .621-.209.928a.99.99 0 01-.816.418c-.453 0-.92-.25-1.095-.711.265.02.398-.153.398-.342 0-.3-.258-.355-.349-.355-.014 0-.349 0-.349.376C.44-.488 1.011.14 1.85.14c.892 0 1.673-.662 1.673-1.54 0-.789-.6-1.514-1.465-1.514-.307 0-.67.077-.976.342z"/><path id="C" d="M1.046-2.28c0-.572.049-1.088.314-1.514.237-.376.614-.634 1.06-.634.21 0 .488.055.628.244-.175.014-.321.132-.321.334 0 .175.118.328.328.328.209 0 .334-.14.334-.342 0-.404-.293-.767-.983-.767-1.004 0-2.03.92-2.03 2.42 0 1.807.851 2.35 1.619 2.35.85 0 1.59-.648 1.59-1.562 0-.885-.705-1.54-1.52-1.54-.559 0-.865.369-1.019.683zm.949 2.196c-.35 0-.621-.202-.768-.509-.104-.209-.16-.558-.16-.976 0-.677.404-1.2.962-1.2.321 0 .537.126.712.384.167.265.174.558.174.962 0 .398 0 .69-.188.963-.168.244-.39.376-.732.376z"/><path id="A" d="M4.075-2.291h2.78c.139 0 .328 0 .328-.2 0-.199-.19-.199-.329-.199h-2.78v-2.79c0-.139 0-.328-.199-.328s-.199.19-.199.329v2.79H.886c-.139 0-.328 0-.328.198 0 .2.19.2.329.2h2.79v2.79c0 .139 0 .328.198.328.2 0 .2-.19.2-.329z"/><path id="D" d="M1.913-.528a.532.532 0 00-.528-.528.532.532 0 00-.528.528c0 .289.239.528.528.528.289 0 .528-.24.528-.528z"/><path id="z" d="M2.929-6.376c0-.24 0-.26-.23-.26-.617.638-1.494.638-1.812.638v.31c.199 0 .787 0 1.305-.26v5.161c0 .359-.03.478-.927.478H.946V0c.35-.03 1.216-.03 1.614-.03.399 0 1.266 0 1.614.03v-.309h-.318c-.897 0-.927-.11-.927-.478z"/><path id="w" d="M2.169-2.532h.83c-.105.419-.258 1.054-.258 1.604 0 .28.035.468.076.621.112.349.203.377.314.377.16 0 .328-.147.328-.314 0-.056-.014-.084-.056-.154-.132-.258-.258-.655-.258-1.227 0-.132 0-.411.098-.907h.872c.125 0 .18 0 .258-.055a.292.292 0 00.118-.216c0-.203-.181-.203-.3-.203H1.562c-.286 0-.481.063-.795.356-.181.16-.453.537-.453.6 0 .083.09.083.118.083.077 0 .084-.014.126-.076.356-.489.788-.489.941-.489h.426c-.216.768-.593 1.59-.802 2.009-.042.09-.112.237-.133.265-.007.028-.02.056-.02.105 0 .111.083.223.243.223.28 0 .356-.314.523-.942z"/><path id="x" d="M3.494-4.924c.042-.09.042-.104.042-.132a.17.17 0 00-.168-.174c-.118 0-.153.083-.188.174L.58 1.437c-.042.09-.042.104-.042.132 0 .112.09.174.167.174.119 0 .154-.083.189-.174z"/></defs><g transform="translate(53.975 113.242)"><use y="61.648" xlink:href="#t" x="105.68" width="100%" height="100%"/><use y="58.032" xlink:href="#u" x="110.319" width="100%" height="100%"/><use y="58.032" xlink:href="#v" x="116.545" width="100%" height="100%"/><use y="58.032" xlink:href="#w" x="120.516" width="100%" height="100%"/><use y="58.032" xlink:href="#x" x="125.426" width="100%" height="100%"/><use y="58.032" xlink:href="#y" x="129.507" width="100%" height="100%"/><path d="M77.908 66.43h83.841v.398H77.908z"/><use y="83.864" xlink:href="#z" x="77.908" width="100%" height="100%"/><use y="83.864" xlink:href="#A" x="85.103" width="100%" height="100%"/><use y="76.392" xlink:href="#t" x="118.883" width="100%" height="100%"/><use y="72.777" xlink:href="#u" x="123.522" width="100%" height="100%"/><use y="72.777" xlink:href="#v" x="129.748" width="100%" height="100%"/><use y="72.777" xlink:href="#w" x="133.72" width="100%" height="100%"/><path d="M96.261 81.174h65.487v.398H96.261z"/><use y="98.609" xlink:href="#z" x="96.261" width="100%" height="100%"/><use y="98.609" xlink:href="#A" x="103.456" width="100%" height="100%"/><use y="91.137" xlink:href="#t" x="128.06" width="100%" height="100%"/><use y="87.521" xlink:href="#u" x="132.698" width="100%" height="100%"/><use y="87.521" xlink:href="#B" x="138.925" width="100%" height="100%"/><use y="87.521" xlink:href="#w" x="142.896" width="100%" height="100%"/><path d="M114.615 95.919h47.134v.398h-47.134z"/><use y="113.353" xlink:href="#z" x="114.615" width="100%" height="100%"/><use y="113.353" xlink:href="#A" x="121.81" width="100%" height="100%"/><use y="105.881" xlink:href="#t" x="137.236" width="100%" height="100%"/><use y="102.266" xlink:href="#u" x="141.875" width="100%" height="100%"/><use y="102.266" xlink:href="#C" x="148.102" width="100%" height="100%"/><use y="102.266" xlink:href="#w" x="152.073" width="100%" height="100%"/><path d="M132.968 110.663h28.781v.398h-28.781z"/><use y="127.257" xlink:href="#z" x="132.968" width="100%" height="100%"/><use y="127.257" xlink:href="#A" x="140.163" width="100%" height="100%"/><use y="120.283" xlink:href="#D" x="150.679" width="100%" height="100%"/><use y="123.272" xlink:href="#D" x="154.553" width="100%" height="100%"/><use y="126.26" xlink:href="#D" x="158.428" width="100%" height="100%"/></g></g><path d="M56.261 64.366c3.055 2.639 8.383 8.332 10.1 13.456 3.717 11.087 8.879 16.818 16.66-8.818.672-2.215 3.397-8.986 8.165-10.686" fill="none" stroke="#000" stroke-width=".265"/><g transform="matrix(.6 0 0 .6 97.222 5.496)"><defs><path d="M4.075-2.291h2.78c.139 0 .328 0 .328-.2 0-.199-.19-.199-.329-.199h-2.78v-2.79c0-.139 0-.328-.199-.328s-.199.19-.199.329v2.79H.886c-.139 0-.328 0-.328.198 0 .2.19.2.329.2h2.79v2.79c0 .139 0 .328.198.328.2 0 .2-.19.2-.329z" id="H"/><path d="M2.929-6.376c0-.24 0-.26-.23-.26-.617.638-1.494.638-1.812.638v.31c.199 0 .787 0 1.305-.26v5.161c0 .359-.03.478-.927.478H.946V0c.35-.03 1.216-.03 1.614-.03.399 0 1.266 0 1.614.03v-.309h-.318c-.897 0-.927-.11-.927-.478z" id="L"/><path d="M1.265-.767l1.056-1.026c1.554-1.375 2.152-1.913 2.152-2.91 0-1.135-.896-1.932-2.112-1.932A1.84 1.84 0 00.498-4.832c0 .558.498.558.528.558.17 0 .518-.12.518-.528a.504.504 0 00-.528-.518c-.08 0-.1 0-.13.01.23-.648.768-1.016 1.346-1.016.906 0 1.335.807 1.335 1.624 0 .797-.499 1.584-1.046 2.201L.608-.369c-.11.11-.11.13-.11.369h3.696l.28-1.733h-.25c-.05.298-.12.737-.219.886-.07.08-.727.08-.946.08z" id="J"/><path d="M4.473-2.002c0-1.186-.817-2.182-1.893-2.182-.478 0-.906.16-1.265.508V-5.62c.2.06.528.13.847.13 1.225 0 1.923-.907 1.923-1.037 0-.06-.03-.11-.1-.11-.01 0-.03 0-.08.03a3.295 3.295 0 01-2.68.01c-.08-.03-.1-.03-.12-.03-.099 0-.099.08-.099.24v2.949c0 .18 0 .259.14.259.07 0 .09-.03.13-.09a1.49 1.49 0 011.284-.697c.518 0 .768.458.847.637.16.37.18.758.18 1.256 0 .348 0 .946-.24 1.365-.239.388-.607.647-1.066.647C1.554-.06.986-.588.817-1.176c.03.01.06.02.17.02a.478.478 0 00.497-.488.478.478 0 00-.498-.488c-.14 0-.488.07-.488.528 0 .857.688 1.823 1.803 1.823 1.156 0 2.172-.956 2.172-2.221z" id="G"/><path d="M6.844-3.258c.15 0 .34 0 .34-.199 0-.2-.19-.2-.33-.2H.887c-.14 0-.33 0-.33.2s.19.2.34.2zm.01 1.933c.14 0 .33 0 .33-.2 0-.199-.19-.199-.34-.199H.897c-.15 0-.34 0-.34.2 0 .199.19.199.33.199z" id="E"/><path d="M2.48 14.545l-1.314 2.59c-.05.1-.06.12-.06.13 0 .04.13.15.14.16l.677-1.315 2.301 13.38c.309 0 .369 0 .419-.26L10.162-.2a.194.194 0 00-.2-.199c-.159 0-.189.13-.219.3l-5.1 27.148h-.01z" id="F"/><path d="M6.565-2.291c.17 0 .35 0 .35-.2 0-.199-.18-.199-.35-.199h-5.39c-.169 0-.348 0-.348.2 0 .199.18.199.349.199z" id="K"/><path d="M3.875 8.518L2.122 4.643c-.07-.16-.12-.16-.15-.16-.01 0-.06 0-.169.08l-.946.717c-.13.1-.13.13-.13.16 0 .05.03.11.1.11.06 0 .229-.14.339-.22.06-.05.209-.16.318-.24l1.963 4.315c.07.16.12.16.21.16.149 0 .179-.06.248-.2L8.428 0c.07-.14.07-.18.07-.2a.2.2 0 00-.2-.199c-.079 0-.149.05-.228.21z" id="I"/></defs><use height="100%" width="100%" x="76.712" xlink:href="#E" y="73.551"/><use height="100%" width="100%" x="87.228" xlink:href="#F" y="53.599"/><path d="M97.191 53.2h32.832v.398H97.191z"/><use height="100%" width="100%" x="98.387" xlink:href="#G" y="66.812"/><use height="100%" width="100%" x="105.582" xlink:href="#H" y="66.812"/><use height="100%" width="100%" x="115.544" xlink:href="#I" y="58.57"/><path d="M123.847 58.172h4.981v.398h-4.981z"/><use height="100%" width="100%" x="123.847" xlink:href="#G" y="66.812"/><path d="M98.387 70.861h30.441v.398H98.387z"/><use height="100%" width="100%" x="111.117" xlink:href="#J" y="80.385"/><use height="100%" width="100%" x="132.237" xlink:href="#K" y="73.551"/><use height="100%" width="100%" x="143.395" xlink:href="#L" y="66.812"/><use height="100%" width="100%" x="150.591" xlink:href="#H" y="66.812"/><use height="100%" width="100%" x="160.553" xlink:href="#I" y="58.57"/><path d="M168.856 58.172h4.981v.398h-4.981z"/><use height="100%" width="100%" x="168.856" xlink:href="#G" y="66.812"/><path d="M143.395 70.861h30.441v.398h-30.441z"/><use height="100%" width="100%" x="156.125" xlink:href="#J" y="80.385"/></g><g transform="translate(-17.032 -57.345)"><defs><path id="M" d="M1.325-.827c.538-.578.827-.827 1.186-1.136 0-.01.617-.538.976-.896.946-.927 1.166-1.405 1.166-1.445 0-.1-.09-.1-.11-.1-.07 0-.1.02-.15.11-.298.478-.508.638-.747.638s-.358-.15-.508-.32c-.19-.228-.358-.427-.687-.427-.747 0-1.206.926-1.206 1.135 0 .05.03.11.12.11s.11-.05.13-.11c.189-.458.767-.468.846-.468.21 0 .399.07.628.15.398.149.508.149.767.149-.359.428-1.196 1.146-1.385 1.305l-.896.837C.777-.628.428-.06.428.01c0 .1.1.1.12.1.08 0 .1-.02.16-.13.228-.349.527-.618.846-.618.23 0 .329.09.578.379.17.21.349.369.638.369.986 0 1.564-1.266 1.564-1.535 0-.05-.04-.1-.12-.1-.09 0-.11.06-.14.13-.228.648-.866.837-1.195.837-.2 0-.378-.06-.588-.13-.338-.129-.488-.169-.697-.169-.02 0-.18 0-.269.03z"/></defs><use height="100%" width="100%" y="62.765" xlink:href="#M" x="76.712"/></g><g transform="translate(-76.219 3.563)"><defs><path d="M3.328-3.009c.06-.259.288-1.175.986-1.175.05 0 .289 0 .498.13-.279.049-.478.298-.478.537 0 .16.11.349.378.349.22 0 .538-.18.538-.578 0-.518-.587-.657-.926-.657-.578 0-.927.528-1.046.757-.25-.658-.787-.757-1.076-.757C1.166-4.403.598-3.118.598-2.87c0 .1.1.1.12.1.079 0 .109-.02.129-.11.339-1.056.996-1.305 1.335-1.305.19 0 .538.09.538.667 0 .309-.17.977-.538 2.371-.16.618-.508 1.036-.947 1.036-.06 0-.289 0-.498-.13.25-.049.468-.258.468-.537 0-.27-.219-.349-.368-.349-.299 0-.548.26-.548.578 0 .458.498.658.936.658.658 0 1.017-.698 1.046-.758A1.1 1.1 0 003.347.11c1.027 0 1.594-1.286 1.594-1.535 0-.1-.09-.1-.12-.1-.089 0-.109.04-.129.11C4.364-.349 3.686-.11 3.367-.11c-.388 0-.548-.318-.548-.657 0-.22.06-.438.17-.877z" id="N"/></defs><use height="100%" width="100%" x="76.712" xlink:href="#N" y="62.765"/></g><path d="M62.082 6.724L59.094 11.9l2.953-1.07 3.024 1.07zM7.087 64.366l5.176 2.988-1.07-2.953 1.07-3.024z" stroke="#000" stroke-width=".265"/><path d="M62.082 64.366H50.439" fill="none" stroke="#0f0" stroke-linecap="round"/><g transform="matrix(.8 0 0 .8 -11.888 6.499)"><defs><path id="O" d="M4.533-4.981c0-.658-.18-2.043-1.196-2.043-1.384 0-2.919 2.81-2.919 5.091C.418-.996.708.11 1.614.11c1.405 0 2.919-2.86 2.919-5.091zM1.474-3.616c.17-.638.37-1.435.768-2.142.269-.489.637-1.046 1.086-1.046.488 0 .547.637.547 1.205 0 .488-.08.996-.318 1.983zm1.993.318c-.11.459-.319 1.305-.697 2.023C2.42-.598 2.042-.11 1.614-.11c-.329 0-.538-.289-.538-1.215 0-.418.06-.996.319-1.973z"/></defs><use y="62.765" xlink:href="#O" x="76.712" width="100%" height="100%"/></g><use height="100%" width="100%" y="62.765" xlink:href="#P" x="76.712" transform="matrix(.8 0 0 .8 -4.67 2.336)"/><g transform="translate(-30.9 32.327)"><defs><path d="M3.564-3.396c0-.733-.28-1.514-.963-1.514C1.555-4.91.44-3.04.44-1.444.44-.614.76.07 1.402.07c1.06 0 2.162-1.904 2.162-3.466zm-2.337.85c.356-1.506.956-2.168 1.367-2.168.447 0 .447.774.447.906 0 .272-.056.677-.203 1.263zm1.549.252c-.196.76-.356 1.136-.565 1.478-.216.363-.495.69-.802.69-.384 0-.447-.53-.447-.906 0-.46.133-1.004.203-1.262z" id="Q"/><path d="M3.522-1.27h-.237c-.021.154-.091.566-.182.635-.055.042-.592.042-.69.042H1.13c.732-.648.976-.844 1.395-1.171.516-.412.997-.844.997-1.507 0-.844-.74-1.36-1.632-1.36-.865 0-1.45.607-1.45 1.249 0 .355.3.39.369.39.167 0 .37-.118.37-.37 0-.125-.05-.369-.412-.369.216-.495.69-.649 1.018-.649.698 0 1.06.544 1.06 1.11 0 .606-.432 1.087-.655 1.338L.51-.272C.44-.209.44-.195.44 0h2.873z" id="R"/></defs><use height="100%" width="100%" x="77.908" xlink:href="#Q" y="58.842"/><path d="M77.908 60.075h4.009v.398h-4.009z"/><use height="100%" width="100%" x="77.927" xlink:href="#R" y="66.2"/></g><path d="M62.131 88.653c-.974-.615-1.6-.583-2.43-.535-.829.047-1.292.515-2.13 1.538" fill="none" stroke="#000" stroke-width=".265"/><path d="M59.684 88.094c-3.313-4.007-5.534.24-7.192 4.936" fill="none" stroke="#000" stroke-width=".265" stroke-linecap="round"/><g transform="matrix(.6 0 0 .6 97.332 29.284)"><defs><path id="S" d="M6.844-3.258c.15 0 .34 0 .34-.199 0-.2-.19-.2-.33-.2H.887c-.14 0-.33 0-.33.2s.19.2.34.2zm.01 1.933c.14 0 .33 0 .33-.2 0-.199-.19-.199-.34-.199H.897c-.15 0-.34 0-.34.2 0 .199.19.199.33.199z"/><path id="U" d="M3.318-.757c.04.398.308.817.777.817.209 0 .817-.14.817-.947v-.558h-.25v.558c0 .578-.249.638-.358.638-.329 0-.369-.448-.369-.498V-2.74c0-.418 0-.807-.358-1.175a1.902 1.902 0 00-1.365-.548c-.817 0-1.505.468-1.505 1.126 0 .298.2.468.459.468a.44.44 0 00.458-.459c0-.12-.05-.448-.508-.458.269-.348.757-.458 1.076-.458.488 0 1.056.388 1.056 1.275v.369c-.508.03-1.206.06-1.833.358-.748.34-.997.857-.997 1.296C.418-.14 1.385.11 2.012.11a1.38 1.38 0 001.306-.867zm-.07-1.634v.996c0 .947-.717 1.285-1.166 1.285-.488 0-.896-.348-.896-.846 0-.548.418-1.375 2.062-1.435z"/><path id="V" d="M1.096-3.427v2.67c0 .448-.11.448-.777.448V0c.348-.01.857-.03 1.126-.03.259 0 .777.02 1.115.03v-.309c-.667 0-.777 0-.777-.448V-2.59c0-1.036.708-1.594 1.345-1.594.628 0 .738.538.738 1.106v2.32c0 .45-.11.45-.778.45V0c.35-.01.857-.03 1.126-.03.26 0 .777.02 1.116.03v-.309c-.518 0-.767 0-.777-.299V-2.51c0-.856 0-1.165-.309-1.524-.14-.17-.468-.368-1.046-.368-.727 0-1.196.428-1.474 1.046v-1.046l-1.405.11v.308c.697 0 .777.07.777.558z"/><path id="T" d="M1.724-3.985h1.424v-.309H1.724v-1.833h-.25c-.01.817-.308 1.883-1.285 1.923v.219h.847v2.75C1.036-.01 1.963.11 2.321.11c.708 0 .987-.708.987-1.345v-.568h-.25v.548c0 .737-.298 1.116-.667 1.116-.667 0-.667-.907-.667-1.076z"/><path id="W" d="M3.564-3.396c0-.733-.28-1.514-.963-1.514C1.555-4.91.44-3.04.44-1.444.44-.614.76.07 1.402.07c1.06 0 2.162-1.904 2.162-3.466zm-2.337.85c.356-1.506.956-2.168 1.367-2.168.447 0 .447.774.447.906 0 .272-.056.677-.203 1.263zm1.549.252c-.196.76-.356 1.136-.565 1.478-.216.363-.495.69-.802.69-.384 0-.447-.53-.447-.906 0-.46.133-1.004.203-1.262z"/><path id="X" d="M3.522-1.27h-.237c-.021.154-.091.566-.182.635-.055.042-.592.042-.69.042H1.13c.732-.648.976-.844 1.395-1.171.516-.412.997-.844.997-1.507 0-.844-.74-1.36-1.632-1.36-.865 0-1.45.607-1.45 1.249 0 .355.3.39.369.39.167 0 .37-.118.37-.37 0-.125-.05-.369-.412-.369.216-.495.69-.649 1.018-.649.698 0 1.06.544 1.06 1.11 0 .606-.432 1.087-.655 1.338L.51-.272C.44-.209.44-.195.44 0h2.873z"/></defs><use y="62.765" xlink:href="#S" x="76.712" width="100%" height="100%"/><use y="62.765" xlink:href="#T" x="87.228" width="100%" height="100%"/><use y="62.765" xlink:href="#U" x="91.103" width="100%" height="100%"/><use y="62.765" xlink:href="#V" x="96.084" width="100%" height="100%"/><use y="58.842" xlink:href="#W" x="104.475" width="100%" height="100%"/><path d="M104.475 60.075h4.009v.398h-4.009z"/><use y="66.2" xlink:href="#X" x="104.494" width="100%" height="100%"/></g></svg>